<mxfile host="app.diagrams.net" modified="2023-04-01T15:37:56.346Z" agent="Mozilla/5.0 (X11; Linux x86_64) AppleWebKit/537.36 (KHTML, like Gecko) Chrome/109.0.0.0 Safari/537.36" etag="fYKzmauu-2RIMtB-gDxK" version="21.1.2" type="device">
  <diagram name="Страница 1" id="_xlR4FS79NvNA4HaLFDn">
    <mxGraphModel dx="2420" dy="780" grid="1" gridSize="10" guides="1" tooltips="1" connect="1" arrows="1" fold="1" page="1" pageScale="1" pageWidth="827" pageHeight="1169" math="0" shadow="0">
      <root>
        <mxCell id="0" />
        <mxCell id="1" parent="0" />
        <mxCell id="aF4FxWwb6i9fhJN-xK6e-72" value="groups" style="swimlane;fontStyle=0;childLayout=stackLayout;horizontal=1;startSize=26;fillColor=default;horizontalStack=0;resizeParent=1;resizeLast=0;collapsible=1;marginBottom=0;swimlaneFillColor=default;align=center;" vertex="1" parent="1">
          <mxGeometry x="40" y="40" width="160" height="78" as="geometry" />
        </mxCell>
        <mxCell id="aF4FxWwb6i9fhJN-xK6e-73" value="id" style="shape=partialRectangle;top=0;left=0;right=0;bottom=0;align=left;verticalAlign=top;spacingTop=-2;fillColor=none;spacingLeft=64;spacingRight=4;overflow=hidden;rotatable=0;points=[[0,0.5],[1,0.5]];portConstraint=eastwest;dropTarget=0;" vertex="1" parent="aF4FxWwb6i9fhJN-xK6e-72">
          <mxGeometry y="26" width="160" height="26" as="geometry" />
        </mxCell>
        <mxCell id="aF4FxWwb6i9fhJN-xK6e-74" value="PK" style="shape=partialRectangle;top=0;left=0;bottom=0;fillColor=none;align=left;verticalAlign=middle;spacingLeft=4;spacingRight=4;overflow=hidden;rotatable=180;points=[];portConstraint=eastwest;part=1;" vertex="1" connectable="0" parent="aF4FxWwb6i9fhJN-xK6e-73">
          <mxGeometry width="54" height="26" as="geometry" />
        </mxCell>
        <mxCell id="aF4FxWwb6i9fhJN-xK6e-75" value="group_name" style="shape=partialRectangle;top=0;left=0;right=0;bottom=0;align=left;verticalAlign=top;spacingTop=-2;fillColor=none;spacingLeft=64;spacingRight=4;overflow=hidden;rotatable=0;points=[[0,0.5],[1,0.5]];portConstraint=eastwest;dropTarget=0;" vertex="1" parent="aF4FxWwb6i9fhJN-xK6e-72">
          <mxGeometry y="52" width="160" height="26" as="geometry" />
        </mxCell>
        <mxCell id="aF4FxWwb6i9fhJN-xK6e-76" value="" style="shape=partialRectangle;top=0;left=0;bottom=0;fillColor=none;align=left;verticalAlign=middle;spacingLeft=4;spacingRight=4;overflow=hidden;rotatable=180;points=[];portConstraint=eastwest;part=1;" vertex="1" connectable="0" parent="aF4FxWwb6i9fhJN-xK6e-75">
          <mxGeometry width="54" height="26" as="geometry" />
        </mxCell>
        <mxCell id="aF4FxWwb6i9fhJN-xK6e-77" value="users" style="swimlane;fontStyle=0;childLayout=stackLayout;horizontal=1;startSize=26;fillColor=default;horizontalStack=0;resizeParent=1;resizeLast=0;collapsible=1;marginBottom=0;swimlaneFillColor=default;align=center;" vertex="1" parent="1">
          <mxGeometry x="250" y="10" width="255" height="182" as="geometry" />
        </mxCell>
        <mxCell id="aF4FxWwb6i9fhJN-xK6e-78" value="id" style="shape=partialRectangle;top=0;left=0;right=0;bottom=0;align=left;verticalAlign=top;spacingTop=-2;fillColor=none;spacingLeft=64;spacingRight=4;overflow=hidden;rotatable=0;points=[[0,0.5],[1,0.5]];portConstraint=eastwest;dropTarget=0;" vertex="1" parent="aF4FxWwb6i9fhJN-xK6e-77">
          <mxGeometry y="26" width="255" height="26" as="geometry" />
        </mxCell>
        <mxCell id="aF4FxWwb6i9fhJN-xK6e-79" value="PK" style="shape=partialRectangle;top=0;left=0;bottom=0;fillColor=none;align=left;verticalAlign=middle;spacingLeft=4;spacingRight=4;overflow=hidden;rotatable=180;points=[];portConstraint=eastwest;part=1;" vertex="1" connectable="0" parent="aF4FxWwb6i9fhJN-xK6e-78">
          <mxGeometry width="54" height="26" as="geometry" />
        </mxCell>
        <mxCell id="aF4FxWwb6i9fhJN-xK6e-80" value="username" style="shape=partialRectangle;top=0;left=0;right=0;bottom=0;align=left;verticalAlign=top;spacingTop=-2;fillColor=none;spacingLeft=64;spacingRight=4;overflow=hidden;rotatable=0;points=[[0,0.5],[1,0.5]];portConstraint=eastwest;dropTarget=0;" vertex="1" parent="aF4FxWwb6i9fhJN-xK6e-77">
          <mxGeometry y="52" width="255" height="26" as="geometry" />
        </mxCell>
        <mxCell id="aF4FxWwb6i9fhJN-xK6e-81" value="" style="shape=partialRectangle;top=0;left=0;bottom=0;fillColor=none;align=left;verticalAlign=middle;spacingLeft=4;spacingRight=4;overflow=hidden;rotatable=180;points=[];portConstraint=eastwest;part=1;" vertex="1" connectable="0" parent="aF4FxWwb6i9fhJN-xK6e-80">
          <mxGeometry width="54" height="26" as="geometry" />
        </mxCell>
        <mxCell id="aF4FxWwb6i9fhJN-xK6e-82" value="password" style="shape=partialRectangle;top=0;left=0;right=0;bottom=0;align=left;verticalAlign=top;spacingTop=-2;fillColor=none;spacingLeft=64;spacingRight=4;overflow=hidden;rotatable=0;points=[[0,0.5],[1,0.5]];portConstraint=eastwest;dropTarget=0;" vertex="1" parent="aF4FxWwb6i9fhJN-xK6e-77">
          <mxGeometry y="78" width="255" height="26" as="geometry" />
        </mxCell>
        <mxCell id="aF4FxWwb6i9fhJN-xK6e-83" value="" style="shape=partialRectangle;top=0;left=0;bottom=0;fillColor=none;align=left;verticalAlign=middle;spacingLeft=4;spacingRight=4;overflow=hidden;rotatable=180;points=[];portConstraint=eastwest;part=1;" vertex="1" connectable="0" parent="aF4FxWwb6i9fhJN-xK6e-82">
          <mxGeometry width="54" height="26" as="geometry" />
        </mxCell>
        <mxCell id="aF4FxWwb6i9fhJN-xK6e-84" value="full_name" style="shape=partialRectangle;top=0;left=0;right=0;bottom=0;align=left;verticalAlign=top;spacingTop=-2;fillColor=none;spacingLeft=64;spacingRight=4;overflow=hidden;rotatable=0;points=[[0,0.5],[1,0.5]];portConstraint=eastwest;dropTarget=0;" vertex="1" parent="aF4FxWwb6i9fhJN-xK6e-77">
          <mxGeometry y="104" width="255" height="26" as="geometry" />
        </mxCell>
        <mxCell id="aF4FxWwb6i9fhJN-xK6e-85" value="" style="shape=partialRectangle;top=0;left=0;bottom=0;fillColor=none;align=left;verticalAlign=middle;spacingLeft=4;spacingRight=4;overflow=hidden;rotatable=180;points=[];portConstraint=eastwest;part=1;" vertex="1" connectable="0" parent="aF4FxWwb6i9fhJN-xK6e-84">
          <mxGeometry width="54" height="26" as="geometry" />
        </mxCell>
        <mxCell id="aF4FxWwb6i9fhJN-xK6e-86" value="group_id" style="shape=partialRectangle;top=0;left=0;right=0;bottom=0;align=left;verticalAlign=top;spacingTop=-2;fillColor=none;spacingLeft=64;spacingRight=4;overflow=hidden;rotatable=0;points=[[0,0.5],[1,0.5]];portConstraint=eastwest;dropTarget=0;" vertex="1" parent="aF4FxWwb6i9fhJN-xK6e-77">
          <mxGeometry y="130" width="255" height="26" as="geometry" />
        </mxCell>
        <mxCell id="aF4FxWwb6i9fhJN-xK6e-87" value="FK" style="shape=partialRectangle;top=0;left=0;bottom=0;fillColor=none;align=left;verticalAlign=middle;spacingLeft=4;spacingRight=4;overflow=hidden;rotatable=180;points=[];portConstraint=eastwest;part=1;" vertex="1" connectable="0" parent="aF4FxWwb6i9fhJN-xK6e-86">
          <mxGeometry width="54" height="26" as="geometry" />
        </mxCell>
        <mxCell id="aF4FxWwb6i9fhJN-xK6e-88" value="is_admin" style="shape=partialRectangle;top=0;left=0;right=0;bottom=0;align=left;verticalAlign=top;spacingTop=-2;fillColor=none;spacingLeft=64;spacingRight=4;overflow=hidden;rotatable=0;points=[[0,0.5],[1,0.5]];portConstraint=eastwest;dropTarget=0;" vertex="1" parent="aF4FxWwb6i9fhJN-xK6e-77">
          <mxGeometry y="156" width="255" height="26" as="geometry" />
        </mxCell>
        <mxCell id="aF4FxWwb6i9fhJN-xK6e-89" value="" style="shape=partialRectangle;top=0;left=0;bottom=0;fillColor=none;align=left;verticalAlign=middle;spacingLeft=4;spacingRight=4;overflow=hidden;rotatable=180;points=[];portConstraint=eastwest;part=1;" vertex="1" connectable="0" parent="aF4FxWwb6i9fhJN-xK6e-88">
          <mxGeometry width="54" height="26" as="geometry" />
        </mxCell>
        <mxCell id="aF4FxWwb6i9fhJN-xK6e-103" value="teachers" style="swimlane;fontStyle=0;childLayout=stackLayout;horizontal=1;startSize=26;fillColor=default;horizontalStack=0;resizeParent=1;resizeLast=0;collapsible=1;marginBottom=0;swimlaneFillColor=default;align=center;" vertex="1" parent="1">
          <mxGeometry x="-50" y="200" width="238" height="78" as="geometry" />
        </mxCell>
        <mxCell id="aF4FxWwb6i9fhJN-xK6e-104" value="id" style="shape=partialRectangle;top=0;left=0;right=0;bottom=0;align=left;verticalAlign=top;spacingTop=-2;fillColor=none;spacingLeft=64;spacingRight=4;overflow=hidden;rotatable=0;points=[[0,0.5],[1,0.5]];portConstraint=eastwest;dropTarget=0;" vertex="1" parent="aF4FxWwb6i9fhJN-xK6e-103">
          <mxGeometry y="26" width="238" height="26" as="geometry" />
        </mxCell>
        <mxCell id="aF4FxWwb6i9fhJN-xK6e-105" value="PK" style="shape=partialRectangle;top=0;left=0;bottom=0;fillColor=none;align=left;verticalAlign=middle;spacingLeft=4;spacingRight=4;overflow=hidden;rotatable=180;points=[];portConstraint=eastwest;part=1;" vertex="1" connectable="0" parent="aF4FxWwb6i9fhJN-xK6e-104">
          <mxGeometry width="54" height="26" as="geometry" />
        </mxCell>
        <mxCell id="aF4FxWwb6i9fhJN-xK6e-106" value="full_name" style="shape=partialRectangle;top=0;left=0;right=0;bottom=0;align=left;verticalAlign=top;spacingTop=-2;fillColor=none;spacingLeft=64;spacingRight=4;overflow=hidden;rotatable=0;points=[[0,0.5],[1,0.5]];portConstraint=eastwest;dropTarget=0;" vertex="1" parent="aF4FxWwb6i9fhJN-xK6e-103">
          <mxGeometry y="52" width="238" height="26" as="geometry" />
        </mxCell>
        <mxCell id="aF4FxWwb6i9fhJN-xK6e-107" value="" style="shape=partialRectangle;top=0;left=0;bottom=0;fillColor=none;align=left;verticalAlign=middle;spacingLeft=4;spacingRight=4;overflow=hidden;rotatable=180;points=[];portConstraint=eastwest;part=1;" vertex="1" connectable="0" parent="aF4FxWwb6i9fhJN-xK6e-106">
          <mxGeometry width="54" height="26" as="geometry" />
        </mxCell>
        <mxCell id="aF4FxWwb6i9fhJN-xK6e-108" value="subjects" style="swimlane;fontStyle=0;childLayout=stackLayout;horizontal=1;startSize=26;fillColor=default;horizontalStack=0;resizeParent=1;resizeLast=0;collapsible=1;marginBottom=0;swimlaneFillColor=default;align=center;" vertex="1" parent="1">
          <mxGeometry x="650" y="270" width="248" height="80" as="geometry" />
        </mxCell>
        <mxCell id="aF4FxWwb6i9fhJN-xK6e-109" value="id" style="shape=partialRectangle;top=0;left=0;right=0;bottom=0;align=left;verticalAlign=top;spacingTop=-2;fillColor=none;spacingLeft=64;spacingRight=4;overflow=hidden;rotatable=0;points=[[0,0.5],[1,0.5]];portConstraint=eastwest;dropTarget=0;" vertex="1" parent="aF4FxWwb6i9fhJN-xK6e-108">
          <mxGeometry y="26" width="248" height="26" as="geometry" />
        </mxCell>
        <mxCell id="aF4FxWwb6i9fhJN-xK6e-110" value="PK" style="shape=partialRectangle;top=0;left=0;bottom=0;fillColor=none;align=left;verticalAlign=middle;spacingLeft=4;spacingRight=4;overflow=hidden;rotatable=180;points=[];portConstraint=eastwest;part=1;" vertex="1" connectable="0" parent="aF4FxWwb6i9fhJN-xK6e-109">
          <mxGeometry width="54" height="26" as="geometry" />
        </mxCell>
        <mxCell id="aF4FxWwb6i9fhJN-xK6e-111" value="subject_name" style="shape=partialRectangle;top=0;left=0;right=0;bottom=0;align=left;verticalAlign=top;spacingTop=-2;fillColor=none;spacingLeft=64;spacingRight=4;overflow=hidden;rotatable=0;points=[[0,0.5],[1,0.5]];portConstraint=eastwest;dropTarget=0;" vertex="1" parent="aF4FxWwb6i9fhJN-xK6e-108">
          <mxGeometry y="52" width="248" height="26" as="geometry" />
        </mxCell>
        <mxCell id="aF4FxWwb6i9fhJN-xK6e-112" value="" style="shape=partialRectangle;top=0;left=0;bottom=0;fillColor=none;align=left;verticalAlign=middle;spacingLeft=4;spacingRight=4;overflow=hidden;rotatable=180;points=[];portConstraint=eastwest;part=1;" vertex="1" connectable="0" parent="aF4FxWwb6i9fhJN-xK6e-111">
          <mxGeometry width="54" height="26" as="geometry" />
        </mxCell>
        <mxCell id="aF4FxWwb6i9fhJN-xK6e-115" value="tests" style="swimlane;fontStyle=0;childLayout=stackLayout;horizontal=1;startSize=26;fillColor=default;horizontalStack=0;resizeParent=1;resizeLast=0;collapsible=1;marginBottom=0;swimlaneFillColor=default;align=center;" vertex="1" parent="1">
          <mxGeometry x="240" y="220" width="232" height="160" as="geometry" />
        </mxCell>
        <mxCell id="aF4FxWwb6i9fhJN-xK6e-116" value="id" style="shape=partialRectangle;top=0;left=0;right=0;bottom=0;align=left;verticalAlign=top;spacingTop=-2;fillColor=none;spacingLeft=64;spacingRight=4;overflow=hidden;rotatable=0;points=[[0,0.5],[1,0.5]];portConstraint=eastwest;dropTarget=0;" vertex="1" parent="aF4FxWwb6i9fhJN-xK6e-115">
          <mxGeometry y="26" width="232" height="26" as="geometry" />
        </mxCell>
        <mxCell id="aF4FxWwb6i9fhJN-xK6e-117" value="PK" style="shape=partialRectangle;top=0;left=0;bottom=0;fillColor=none;align=left;verticalAlign=middle;spacingLeft=4;spacingRight=4;overflow=hidden;rotatable=180;points=[];portConstraint=eastwest;part=1;" vertex="1" connectable="0" parent="aF4FxWwb6i9fhJN-xK6e-116">
          <mxGeometry width="54" height="26" as="geometry" />
        </mxCell>
        <mxCell id="aF4FxWwb6i9fhJN-xK6e-118" value="student_id" style="shape=partialRectangle;top=0;left=0;right=0;bottom=0;align=left;verticalAlign=top;spacingTop=-2;fillColor=none;spacingLeft=64;spacingRight=4;overflow=hidden;rotatable=0;points=[[0,0.5],[1,0.5]];portConstraint=eastwest;dropTarget=0;" vertex="1" parent="aF4FxWwb6i9fhJN-xK6e-115">
          <mxGeometry y="52" width="232" height="26" as="geometry" />
        </mxCell>
        <mxCell id="aF4FxWwb6i9fhJN-xK6e-119" value="FK" style="shape=partialRectangle;top=0;left=0;bottom=0;fillColor=none;align=left;verticalAlign=middle;spacingLeft=4;spacingRight=4;overflow=hidden;rotatable=180;points=[];portConstraint=eastwest;part=1;" vertex="1" connectable="0" parent="aF4FxWwb6i9fhJN-xK6e-118">
          <mxGeometry width="54" height="26" as="geometry" />
        </mxCell>
        <mxCell id="aF4FxWwb6i9fhJN-xK6e-120" value="teacher_id" style="shape=partialRectangle;top=0;left=0;right=0;bottom=0;align=left;verticalAlign=top;spacingTop=-2;fillColor=none;spacingLeft=64;spacingRight=4;overflow=hidden;rotatable=0;points=[[0,0.5],[1,0.5]];portConstraint=eastwest;dropTarget=0;" vertex="1" parent="aF4FxWwb6i9fhJN-xK6e-115">
          <mxGeometry y="78" width="232" height="26" as="geometry" />
        </mxCell>
        <mxCell id="aF4FxWwb6i9fhJN-xK6e-121" value="FK" style="shape=partialRectangle;top=0;left=0;bottom=0;fillColor=none;align=left;verticalAlign=middle;spacingLeft=4;spacingRight=4;overflow=hidden;rotatable=180;points=[];portConstraint=eastwest;part=1;" vertex="1" connectable="0" parent="aF4FxWwb6i9fhJN-xK6e-120">
          <mxGeometry width="54" height="26" as="geometry" />
        </mxCell>
        <mxCell id="aF4FxWwb6i9fhJN-xK6e-122" value="subject_id" style="shape=partialRectangle;top=0;left=0;right=0;bottom=0;align=left;verticalAlign=top;spacingTop=-2;fillColor=none;spacingLeft=64;spacingRight=4;overflow=hidden;rotatable=0;points=[[0,0.5],[1,0.5]];portConstraint=eastwest;dropTarget=0;" vertex="1" parent="aF4FxWwb6i9fhJN-xK6e-115">
          <mxGeometry y="104" width="232" height="26" as="geometry" />
        </mxCell>
        <mxCell id="aF4FxWwb6i9fhJN-xK6e-123" value="FK" style="shape=partialRectangle;top=0;left=0;bottom=0;fillColor=none;align=left;verticalAlign=middle;spacingLeft=4;spacingRight=4;overflow=hidden;rotatable=180;points=[];portConstraint=eastwest;part=1;" vertex="1" connectable="0" parent="aF4FxWwb6i9fhJN-xK6e-122">
          <mxGeometry width="54" height="26" as="geometry" />
        </mxCell>
        <mxCell id="aF4FxWwb6i9fhJN-xK6e-124" value="is_pass" style="shape=partialRectangle;top=0;left=0;right=0;bottom=0;align=left;verticalAlign=top;spacingTop=-2;fillColor=none;spacingLeft=64;spacingRight=4;overflow=hidden;rotatable=0;points=[[0,0.5],[1,0.5]];portConstraint=eastwest;dropTarget=0;" vertex="1" parent="aF4FxWwb6i9fhJN-xK6e-115">
          <mxGeometry y="130" width="232" height="26" as="geometry" />
        </mxCell>
        <mxCell id="aF4FxWwb6i9fhJN-xK6e-125" value="" style="shape=partialRectangle;top=0;left=0;bottom=0;fillColor=none;align=left;verticalAlign=middle;spacingLeft=4;spacingRight=4;overflow=hidden;rotatable=180;points=[];portConstraint=eastwest;part=1;" vertex="1" connectable="0" parent="aF4FxWwb6i9fhJN-xK6e-124">
          <mxGeometry width="54" height="26" as="geometry" />
        </mxCell>
        <mxCell id="aF4FxWwb6i9fhJN-xK6e-128" value="session_grades" style="swimlane;fontStyle=0;childLayout=stackLayout;horizontal=1;startSize=26;fillColor=default;horizontalStack=0;resizeParent=1;resizeLast=0;collapsible=1;marginBottom=0;swimlaneFillColor=default;align=center;" vertex="1" parent="1">
          <mxGeometry x="590" y="80" width="264" height="156" as="geometry" />
        </mxCell>
        <mxCell id="aF4FxWwb6i9fhJN-xK6e-129" value="id" style="shape=partialRectangle;top=0;left=0;right=0;bottom=0;align=left;verticalAlign=top;spacingTop=-2;fillColor=none;spacingLeft=64;spacingRight=4;overflow=hidden;rotatable=0;points=[[0,0.5],[1,0.5]];portConstraint=eastwest;dropTarget=0;" vertex="1" parent="aF4FxWwb6i9fhJN-xK6e-128">
          <mxGeometry y="26" width="264" height="26" as="geometry" />
        </mxCell>
        <mxCell id="aF4FxWwb6i9fhJN-xK6e-130" value="PK" style="shape=partialRectangle;top=0;left=0;bottom=0;fillColor=none;align=left;verticalAlign=middle;spacingLeft=4;spacingRight=4;overflow=hidden;rotatable=180;points=[];portConstraint=eastwest;part=1;" vertex="1" connectable="0" parent="aF4FxWwb6i9fhJN-xK6e-129">
          <mxGeometry width="54" height="26" as="geometry" />
        </mxCell>
        <mxCell id="aF4FxWwb6i9fhJN-xK6e-131" value="student_id" style="shape=partialRectangle;top=0;left=0;right=0;bottom=0;align=left;verticalAlign=top;spacingTop=-2;fillColor=none;spacingLeft=64;spacingRight=4;overflow=hidden;rotatable=0;points=[[0,0.5],[1,0.5]];portConstraint=eastwest;dropTarget=0;" vertex="1" parent="aF4FxWwb6i9fhJN-xK6e-128">
          <mxGeometry y="52" width="264" height="26" as="geometry" />
        </mxCell>
        <mxCell id="aF4FxWwb6i9fhJN-xK6e-132" value="FK" style="shape=partialRectangle;top=0;left=0;bottom=0;fillColor=none;align=left;verticalAlign=middle;spacingLeft=4;spacingRight=4;overflow=hidden;rotatable=180;points=[];portConstraint=eastwest;part=1;" vertex="1" connectable="0" parent="aF4FxWwb6i9fhJN-xK6e-131">
          <mxGeometry width="54" height="26" as="geometry" />
        </mxCell>
        <mxCell id="aF4FxWwb6i9fhJN-xK6e-133" value="subject_id" style="shape=partialRectangle;top=0;left=0;right=0;bottom=0;align=left;verticalAlign=top;spacingTop=-2;fillColor=none;spacingLeft=64;spacingRight=4;overflow=hidden;rotatable=0;points=[[0,0.5],[1,0.5]];portConstraint=eastwest;dropTarget=0;" vertex="1" parent="aF4FxWwb6i9fhJN-xK6e-128">
          <mxGeometry y="78" width="264" height="26" as="geometry" />
        </mxCell>
        <mxCell id="aF4FxWwb6i9fhJN-xK6e-134" value="FK" style="shape=partialRectangle;top=0;left=0;bottom=0;fillColor=none;align=left;verticalAlign=middle;spacingLeft=4;spacingRight=4;overflow=hidden;rotatable=180;points=[];portConstraint=eastwest;part=1;" vertex="1" connectable="0" parent="aF4FxWwb6i9fhJN-xK6e-133">
          <mxGeometry width="54" height="26" as="geometry" />
        </mxCell>
        <mxCell id="aF4FxWwb6i9fhJN-xK6e-135" value="session_number" style="shape=partialRectangle;top=0;left=0;right=0;bottom=0;align=left;verticalAlign=top;spacingTop=-2;fillColor=none;spacingLeft=64;spacingRight=4;overflow=hidden;rotatable=0;points=[[0,0.5],[1,0.5]];portConstraint=eastwest;dropTarget=0;" vertex="1" parent="aF4FxWwb6i9fhJN-xK6e-128">
          <mxGeometry y="104" width="264" height="26" as="geometry" />
        </mxCell>
        <mxCell id="aF4FxWwb6i9fhJN-xK6e-136" value="" style="shape=partialRectangle;top=0;left=0;bottom=0;fillColor=none;align=left;verticalAlign=middle;spacingLeft=4;spacingRight=4;overflow=hidden;rotatable=180;points=[];portConstraint=eastwest;part=1;" vertex="1" connectable="0" parent="aF4FxWwb6i9fhJN-xK6e-135">
          <mxGeometry width="54" height="26" as="geometry" />
        </mxCell>
        <mxCell id="aF4FxWwb6i9fhJN-xK6e-137" value="grade" style="shape=partialRectangle;top=0;left=0;right=0;bottom=0;align=left;verticalAlign=top;spacingTop=-2;fillColor=none;spacingLeft=64;spacingRight=4;overflow=hidden;rotatable=0;points=[[0,0.5],[1,0.5]];portConstraint=eastwest;dropTarget=0;" vertex="1" parent="aF4FxWwb6i9fhJN-xK6e-128">
          <mxGeometry y="130" width="264" height="26" as="geometry" />
        </mxCell>
        <mxCell id="aF4FxWwb6i9fhJN-xK6e-138" value="" style="shape=partialRectangle;top=0;left=0;bottom=0;fillColor=none;align=left;verticalAlign=middle;spacingLeft=4;spacingRight=4;overflow=hidden;rotatable=180;points=[];portConstraint=eastwest;part=1;" vertex="1" connectable="0" parent="aF4FxWwb6i9fhJN-xK6e-137">
          <mxGeometry width="54" height="26" as="geometry" />
        </mxCell>
        <mxCell id="aF4FxWwb6i9fhJN-xK6e-139" style="edgeStyle=orthogonalEdgeStyle;rounded=0;orthogonalLoop=1;jettySize=auto;html=1;entryX=1;entryY=0.5;entryDx=0;entryDy=0;" edge="1" parent="1" source="aF4FxWwb6i9fhJN-xK6e-86" target="aF4FxWwb6i9fhJN-xK6e-73">
          <mxGeometry relative="1" as="geometry" />
        </mxCell>
        <mxCell id="aF4FxWwb6i9fhJN-xK6e-141" style="edgeStyle=orthogonalEdgeStyle;rounded=0;orthogonalLoop=1;jettySize=auto;html=1;entryX=1;entryY=0.5;entryDx=0;entryDy=0;" edge="1" parent="1" source="aF4FxWwb6i9fhJN-xK6e-131" target="aF4FxWwb6i9fhJN-xK6e-78">
          <mxGeometry relative="1" as="geometry">
            <Array as="points">
              <mxPoint x="570" y="135" />
              <mxPoint x="570" y="49" />
            </Array>
          </mxGeometry>
        </mxCell>
        <mxCell id="aF4FxWwb6i9fhJN-xK6e-142" style="edgeStyle=orthogonalEdgeStyle;rounded=0;orthogonalLoop=1;jettySize=auto;html=1;entryX=1;entryY=0.5;entryDx=0;entryDy=0;" edge="1" parent="1" source="aF4FxWwb6i9fhJN-xK6e-133" target="aF4FxWwb6i9fhJN-xK6e-109">
          <mxGeometry relative="1" as="geometry" />
        </mxCell>
        <mxCell id="aF4FxWwb6i9fhJN-xK6e-144" style="edgeStyle=orthogonalEdgeStyle;rounded=0;orthogonalLoop=1;jettySize=auto;html=1;" edge="1" parent="1" source="aF4FxWwb6i9fhJN-xK6e-120" target="aF4FxWwb6i9fhJN-xK6e-104">
          <mxGeometry relative="1" as="geometry" />
        </mxCell>
        <mxCell id="aF4FxWwb6i9fhJN-xK6e-145" style="edgeStyle=orthogonalEdgeStyle;rounded=0;orthogonalLoop=1;jettySize=auto;html=1;entryX=0;entryY=0.5;entryDx=0;entryDy=0;" edge="1" parent="1" source="aF4FxWwb6i9fhJN-xK6e-122" target="aF4FxWwb6i9fhJN-xK6e-109">
          <mxGeometry relative="1" as="geometry" />
        </mxCell>
        <mxCell id="aF4FxWwb6i9fhJN-xK6e-147" style="edgeStyle=orthogonalEdgeStyle;rounded=0;orthogonalLoop=1;jettySize=auto;html=1;entryX=1;entryY=0.5;entryDx=0;entryDy=0;" edge="1" parent="1" target="aF4FxWwb6i9fhJN-xK6e-78">
          <mxGeometry relative="1" as="geometry">
            <mxPoint x="470" y="285" as="sourcePoint" />
            <Array as="points">
              <mxPoint x="540" y="285" />
              <mxPoint x="540" y="49" />
            </Array>
          </mxGeometry>
        </mxCell>
      </root>
    </mxGraphModel>
  </diagram>
</mxfile>
